<svg width="303" height="101" viewBox="0 0 303 101" fill="none" xmlns="http://www.w3.org/2000/svg">
<path d="M0 50.5C0 50.0358 0 49.8036 0.00154212 49.6073C0.216016 22.3001 22.3001 0.216016 49.6073 0.00154212C49.8036 0 50.0358 0 50.5 0H252.5C252.964 0 253.196 0 253.393 0.00154212C280.7 0.216016 302.784 22.3001 302.998 49.6073C303 49.8036 303 50.0358 303 50.5C303 50.9642 303 51.1964 302.998 51.3927C302.784 78.6999 280.7 100.784 253.393 100.998C253.196 101 252.964 101 252.5 101H50.5C50.0358 101 49.8036 101 49.6073 100.998C22.3001 100.784 0.216016 78.6999 0.00154212 51.3927C0 51.1964 0 50.9642 0 50.5Z" fill="#0C0D10"/>
<path d="M205.853 48.4824V54.2672H202.227V58.0609H205.853V70.951C205.853 75.3524 207.844 77.113 212.853 77.113C213.734 77.113 214.572 77.0082 215.306 76.8825V73.1307C214.677 73.1936 214.279 73.2355 213.587 73.2355C211.344 73.2355 210.359 72.1876 210.359 69.7982V58.0609H215.306V54.2672H210.359V48.4824H205.853Z" fill="white"/>
<path d="M228.067 77.4274C234.732 77.4274 238.819 72.9631 238.819 65.5644C238.819 58.2076 234.711 53.7223 228.067 53.7223C221.401 53.7223 217.293 58.2076 217.293 65.5644C217.293 72.9631 221.38 77.4274 228.067 77.4274ZM228.067 73.4242C224.147 73.4242 221.946 70.5527 221.946 65.5644C221.946 60.6179 224.147 57.7255 228.067 57.7255C231.965 57.7255 234.187 60.6179 234.187 65.5644C234.187 70.5318 231.965 73.4242 228.067 73.4242Z" fill="white"/>
<path d="M242.316 76.9873H246.822V63.5103C246.822 60.3035 249.232 58.1447 252.649 58.1447C253.445 58.1447 254.787 58.2914 255.164 58.4172V53.9738C254.682 53.848 253.822 53.7851 253.152 53.7851C250.175 53.7851 247.639 55.42 246.99 57.6627H246.654V54.1624H242.316V76.9873Z" fill="white"/>
<path d="M266.353 57.5579C269.685 57.5579 271.865 59.8844 271.97 63.4684H260.442C260.694 59.9053 263.02 57.5579 266.353 57.5579ZM271.949 70.8252C271.111 72.6068 269.245 73.5919 266.52 73.5919C262.915 73.5919 260.589 71.0558 260.442 67.0525V66.801H276.56V65.229C276.56 58.0609 272.724 53.7223 266.374 53.7223C259.939 53.7223 255.852 58.3543 255.852 65.6482C255.852 72.9421 259.855 77.4274 266.395 77.4274C271.614 77.4274 275.261 74.9123 276.288 70.8252H271.949Z" fill="white"/>
<path d="M176.301 68.5584C176.649 74.1632 181.32 77.7476 188.271 77.7476C195.701 77.7476 200.35 73.9894 200.35 67.9936C200.35 63.2795 197.699 60.6727 191.269 59.1737L187.815 58.3265C183.731 57.3706 182.08 56.0889 182.08 53.8514C182.08 51.0273 184.643 49.1807 188.488 49.1807C192.138 49.1807 194.658 50.9838 195.114 53.8731H199.85C199.568 48.5942 194.919 44.8794 188.554 44.8794C181.711 44.8794 177.149 48.5942 177.149 54.1772C177.149 58.7827 179.734 61.5199 185.404 62.845L189.444 63.8226C193.594 64.8002 195.418 66.234 195.418 68.6236C195.418 71.4042 192.551 73.4246 188.64 73.4246C184.448 73.4246 181.537 71.5346 181.124 68.5584H176.301Z" fill="white"/>
<path d="M129.621 53.7851C126.519 53.7851 123.836 55.3362 122.453 57.9351H122.117V54.1624H117.779V84.5746H122.285V73.529H122.641C123.836 75.9393 126.414 77.3646 129.663 77.3646C135.427 77.3646 139.094 72.8163 139.094 65.5644C139.094 58.3124 135.427 53.7851 129.621 53.7851ZM128.342 73.3194C124.57 73.3194 122.201 70.3431 122.201 65.5853C122.201 60.8066 124.57 57.8303 128.363 57.8303C132.178 57.8303 134.462 60.7437 134.462 65.5644C134.462 70.406 132.178 73.3194 128.342 73.3194Z" fill="white"/>
<path d="M154.863 53.7851C151.761 53.7851 149.078 55.3362 147.695 57.9351H147.359V54.1624H143.021V84.5746H147.527V73.529H147.883C149.078 75.9393 151.656 77.3646 154.905 77.3646C160.668 77.3646 164.336 72.8163 164.336 65.5644C164.336 58.3124 160.668 53.7851 154.863 53.7851ZM153.584 73.3194C149.811 73.3194 147.443 70.3431 147.443 65.5853C147.443 60.8066 149.811 57.8303 153.605 57.8303C157.42 57.8303 159.704 60.7437 159.704 65.5644C159.704 70.406 157.42 73.3194 153.584 73.3194Z" fill="white"/>
<path d="M109.694 76.9873H114.864L103.546 45.6397H98.3103L86.9922 76.9873H91.9887L94.878 68.667H106.826L109.694 76.9873ZM100.678 51.3314H101.048L105.588 64.583H96.1162L100.678 51.3314Z" fill="white"/>
<path d="M90.0191 21.995V37.1173H95.479C99.9853 37.1173 102.595 34.3402 102.595 29.509C102.595 24.7512 99.9644 21.995 95.479 21.995H90.0191ZM92.3666 24.1329H95.2171C98.3505 24.1329 100.205 26.1241 100.205 29.5404C100.205 33.0092 98.3819 34.9794 95.2171 34.9794H92.3666V24.1329Z" fill="white"/>
<path d="M110.587 37.3374C113.919 37.3374 115.963 35.1052 115.963 31.4058C115.963 27.7275 113.909 25.4848 110.587 25.4848C107.254 25.4848 105.2 27.7275 105.2 31.4058C105.2 35.1052 107.244 37.3374 110.587 37.3374ZM110.587 35.3357C108.627 35.3357 107.527 33.9 107.527 31.4058C107.527 28.9326 108.627 27.4864 110.587 27.4864C112.536 27.4864 113.647 28.9326 113.647 31.4058C113.647 33.8895 112.536 35.3357 110.587 35.3357Z" fill="white"/>
<path d="M133.365 25.7049H131.112L129.079 34.4135H128.901L126.554 25.7049H124.395L122.047 34.4135H121.88L119.836 25.7049H117.551L120.695 37.1173H123.011L125.359 28.7125H125.537L127.895 37.1173H130.232L133.365 25.7049Z" fill="white"/>
<path d="M135.96 37.1173H138.213V30.4417C138.213 28.6602 139.272 27.5493 140.938 27.5493C142.604 27.5493 143.401 28.461 143.401 30.295V37.1173H145.654V29.7291C145.654 27.0148 144.25 25.4848 141.703 25.4848C139.984 25.4848 138.853 26.2498 138.297 27.5179H138.129V25.7049H135.96V37.1173Z" fill="white"/>
<path d="M149.202 37.1173H151.456V21.251H149.202V37.1173Z" fill="white"/>
<path d="M159.929 37.3374C163.262 37.3374 165.306 35.1052 165.306 31.4058C165.306 27.7275 163.252 25.4848 159.929 25.4848C156.597 25.4848 154.543 27.7275 154.543 31.4058C154.543 35.1052 156.586 37.3374 159.929 37.3374ZM159.929 35.3357C157.97 35.3357 156.869 33.9 156.869 31.4058C156.869 28.9326 157.97 27.4864 159.929 27.4864C161.879 27.4864 162.99 28.9326 162.99 31.4058C162.99 33.8895 161.879 35.3357 159.929 35.3357Z" fill="white"/>
<path d="M172.019 35.4091C170.793 35.4091 169.902 34.8118 169.902 33.7847C169.902 32.7787 170.615 32.2442 172.187 32.1394L174.974 31.9613V32.9149C174.974 34.3297 173.717 35.4091 172.019 35.4091ZM171.442 37.3059C172.941 37.3059 174.188 36.6562 174.869 35.5139H175.047V37.1173H177.217V29.3204C177.217 26.91 175.603 25.4848 172.742 25.4848C170.153 25.4848 168.309 26.7424 168.078 28.7021H170.258C170.51 27.8951 171.38 27.434 172.637 27.434C174.178 27.434 174.974 28.1152 174.974 29.3204V30.3055L171.883 30.4836C169.168 30.6513 167.638 31.8355 167.638 33.8895C167.638 35.975 169.242 37.3059 171.442 37.3059Z" fill="white"/>
<path d="M184.863 37.3059C186.435 37.3059 187.766 36.5619 188.447 35.3148H188.625V37.1173H190.784V21.251H188.531V27.5179H188.363C187.745 26.2603 186.424 25.5162 184.863 25.5162C181.981 25.5162 180.126 27.8008 180.126 31.4058C180.126 35.0214 181.96 37.3059 184.863 37.3059ZM185.502 27.5388C187.388 27.5388 188.573 29.0374 188.573 31.4163C188.573 33.8057 187.399 35.2833 185.502 35.2833C183.595 35.2833 182.452 33.8267 182.452 31.4058C182.452 29.006 183.605 27.5388 185.502 27.5388Z" fill="white"/>
<path d="M205.395 37.3374C208.727 37.3374 210.771 35.1052 210.771 31.4058C210.771 27.7275 208.717 25.4848 205.395 25.4848C202.062 25.4848 200.008 27.7275 200.008 31.4058C200.008 35.1052 202.052 37.3374 205.395 37.3374ZM205.395 35.3357C203.435 35.3357 202.335 33.9 202.335 31.4058C202.335 28.9326 203.435 27.4864 205.395 27.4864C207.344 27.4864 208.455 28.9326 208.455 31.4058C208.455 33.8895 207.344 35.3357 205.395 35.3357Z" fill="white"/>
<path d="M213.753 37.1173H216.007V30.4417C216.007 28.6602 217.065 27.5493 218.731 27.5493C220.398 27.5493 221.194 28.461 221.194 30.295V37.1173H223.447V29.7291C223.447 27.0148 222.043 25.4848 219.496 25.4848C217.778 25.4848 216.646 26.2498 216.09 27.5179H215.923V25.7049H213.753V37.1173Z" fill="white"/>
<path d="M233.824 22.8649V25.7573H232.011V27.6541H233.824V34.0991C233.824 36.2999 234.82 37.1802 237.324 37.1802C237.765 37.1802 238.184 37.1278 238.551 37.0649V35.189C238.236 35.2205 238.037 35.2414 237.691 35.2414C236.57 35.2414 236.077 34.7174 236.077 33.5227V27.6541H238.551V25.7573H236.077V22.8649H233.824Z" fill="white"/>
<path d="M241.575 37.1173H243.828V30.4522C243.828 28.723 244.855 27.5598 246.7 27.5598C248.292 27.5598 249.141 28.482 249.141 30.3055V37.1173H251.394V29.75C251.394 27.0358 249.896 25.4953 247.465 25.4953C245.746 25.4953 244.541 26.2603 243.985 27.5388H243.807V21.251H241.575V37.1173Z" fill="white"/>
<path d="M259.523 27.4026C261.189 27.4026 262.279 28.5658 262.331 30.3579H256.567C256.693 28.5763 257.856 27.4026 259.523 27.4026ZM262.321 34.0363C261.901 34.927 260.969 35.4196 259.606 35.4196C257.804 35.4196 256.641 34.1515 256.567 32.1499V32.0241H264.626V31.2382C264.626 27.6541 262.708 25.4848 259.533 25.4848C256.316 25.4848 254.272 27.8008 254.272 31.4478C254.272 35.0947 256.274 37.3374 259.544 37.3374C262.153 37.3374 263.976 36.0798 264.49 34.0363H262.321Z" fill="white"/>
<path d="M62.5417 51.2594C62.5964 47.0149 64.8759 42.9987 68.492 40.7755C66.2107 37.5174 62.3897 35.4517 58.4143 35.3274C54.1742 34.8823 50.0637 37.8646 47.903 37.8646C45.7005 37.8646 42.3738 35.3715 38.7915 35.4452C34.1222 35.5961 29.7691 38.2508 27.4974 42.3331C22.6141 50.7879 26.2566 63.2135 30.9344 70.0477C33.2749 73.3942 36.0101 77.1324 39.5892 76.9998C43.0915 76.8545 44.3996 74.7665 48.6272 74.7665C52.8156 74.7665 54.0428 76.9998 57.6945 76.9155C61.4526 76.8545 63.8204 73.5541 66.0788 70.1759C67.7603 67.7914 69.0543 65.156 69.9128 62.3674C65.4962 60.4994 62.5468 56.0548 62.5417 51.2594Z" fill="white"/>
<path d="M55.6442 30.8329C57.6933 28.373 58.7029 25.2112 58.4584 22.019C55.3278 22.3478 52.436 23.8441 50.3593 26.2096C48.3284 28.5208 47.2716 31.6269 47.4714 34.6971C50.6031 34.7293 53.6818 33.2737 55.6442 30.8329Z" fill="white"/>
<path d="M49.6073 100.998L49.6152 99.9985L49.6073 100.998ZM302.998 51.3927L301.998 51.3848L302.998 51.3927ZM253.393 100.998L253.385 99.9985L253.393 100.998ZM253.393 0.00154212L253.385 1.00151L253.393 0.00154212ZM302.998 49.6073L303.998 49.5995L302.998 49.6073ZM50.5 1H252.5V-1H50.5V1ZM252.5 100H50.5V102H252.5V100ZM50.5 100C50.0339 100 49.8066 100 49.6152 99.9985L49.5995 101.998C49.8007 102 50.0377 102 50.5 102V100ZM-1 50.5C-1 50.9623 -1.00001 51.1993 -0.998427 51.4005L1.00151 51.3848C1.00001 51.1934 1 50.9661 1 50.5H-1ZM49.6152 99.9985C22.8541 99.7883 1.2117 78.1459 1.00151 51.3848L-0.998427 51.4005C-0.779663 79.2539 21.7461 101.78 49.5995 101.998L49.6152 99.9985ZM302 50.5C302 50.9661 302 51.1934 301.998 51.3848L303.998 51.4005C304 51.1993 304 50.9623 304 50.5H302ZM252.5 102C252.962 102 253.199 102 253.401 101.998L253.385 99.9985C253.193 100 252.966 100 252.5 100V102ZM301.998 51.3848C301.788 78.1459 280.146 99.7883 253.385 99.9985L253.401 101.998C281.254 101.78 303.78 79.2539 303.998 51.4005L301.998 51.3848ZM252.5 1C252.966 1 253.193 1.00001 253.385 1.00151L253.401 -0.998427C253.199 -1.00001 252.962 -1 252.5 -1V1ZM304 50.5C304 50.0377 304 49.8007 303.998 49.5995L301.998 49.6152C302 49.8066 302 50.0339 302 50.5H304ZM253.385 1.00151C280.146 1.2117 301.788 22.8541 301.998 49.6152L303.998 49.5995C303.78 21.7461 281.254 -0.779663 253.401 -0.998427L253.385 1.00151ZM50.5 -1C50.0377 -1 49.8007 -1.00001 49.5995 -0.998427L49.6152 1.00151C49.8066 1.00001 50.0339 1 50.5 1V-1ZM1 50.5C1 50.0339 1.00001 49.8066 1.00151 49.6152L-0.998427 49.5995C-1.00001 49.8007 -1 50.0377 -1 50.5H1ZM49.5995 -0.998427C21.7461 -0.779663 -0.779663 21.7461 -0.998427 49.5995L1.00151 49.6152C1.2117 22.8541 22.8541 1.2117 49.6152 1.00151L49.5995 -0.998427Z" fill="#A6A6A6"/>
</svg>
