<svg width="99" height="99" viewBox="0 0 99 99" fill="none" xmlns="http://www.w3.org/2000/svg">
<path d="M67.1593 44.2161C67.4474 44.5035 67.6759 44.8449 67.8319 45.2207C67.9879 45.5966 68.0682 45.9995 68.0682 46.4065C68.0682 46.8134 67.9879 47.2163 67.8319 47.5922C67.6759 47.9681 67.4474 48.3095 67.1593 48.5968L48.5968 67.1593C48.3094 67.4475 47.968 67.676 47.5921 67.832C47.2162 67.988 46.8133 68.0682 46.4064 68.0682C45.9994 68.0682 45.5965 67.988 45.2206 67.832C44.8448 67.676 44.5034 67.4475 44.216 67.1593L34.9347 57.8781C34.6471 57.5905 34.4189 57.249 34.2633 56.8731C34.1076 56.4973 34.0275 56.0945 34.0275 55.6877C34.0275 55.2809 34.1076 54.8781 34.2633 54.5023C34.4189 54.1265 34.6471 53.785 34.9347 53.4973C35.5157 52.9164 36.3036 52.5901 37.1251 52.5901C37.5319 52.5901 37.9347 52.6702 38.3105 52.8259C38.6864 52.9815 39.0279 53.2097 39.3155 53.4973L46.4064 60.5944L62.7785 44.2161C63.0659 43.928 63.4073 43.6994 63.7831 43.5434C64.159 43.3875 64.5619 43.3072 64.9689 43.3072C65.3758 43.3072 65.7787 43.3875 66.1546 43.5434C66.5305 43.6994 66.8719 43.928 67.1593 44.2161Z" fill="#137E9C"/>
<path d="M21.6562 0C22.4768 0 23.2637 0.325948 23.8439 0.906138C24.4241 1.48633 24.75 2.27324 24.75 3.09375V6.1875H74.25V3.09375C74.25 2.27324 74.5759 1.48633 75.1561 0.906138C75.7363 0.325948 76.5232 0 77.3438 0C78.1643 0 78.9512 0.325948 79.5314 0.906138C80.1116 1.48633 80.4375 2.27324 80.4375 3.09375V6.1875H86.625C89.9071 6.1875 93.0547 7.49129 95.3754 9.81205C97.6962 12.1328 99 15.2804 99 18.5625V86.625C99 89.9071 97.6962 93.0547 95.3754 95.3754C93.0547 97.6962 89.9071 99 86.625 99H12.375C9.09295 99 5.94532 97.6962 3.62455 95.3754C1.30379 93.0547 0 89.9071 0 86.625V18.5625C0 15.2804 1.30379 12.1328 3.62455 9.81205C5.94532 7.49129 9.09295 6.1875 12.375 6.1875H18.5625V3.09375C18.5625 2.27324 18.8884 1.48633 19.4686 0.906138C20.0488 0.325948 20.8357 0 21.6562 0V0ZM6.1875 24.75V86.625C6.1875 88.266 6.8394 89.8398 7.99978 91.0002C9.16016 92.1606 10.734 92.8125 12.375 92.8125H86.625C88.266 92.8125 89.8398 92.1606 91.0002 91.0002C92.1606 89.8398 92.8125 88.266 92.8125 86.625V24.75H6.1875Z" fill="#137E9C"/>
</svg>
