<svg width="339" height="101" viewBox="0 0 339 101" fill="none" xmlns="http://www.w3.org/2000/svg">
<path d="M0 50.5C0 22.8858 22.3858 0 50 0H289C316.614 0 339 22.8858 339 50.5C339 78.1142 316.614 101 289 101H50C22.3858 101 0 78.1142 0 50.5Z" fill="black"/>
<path d="M171.097 54.9215C165.191 54.9215 160.377 59.4388 160.377 65.6604C160.377 71.8441 165.191 76.3992 171.097 76.3992C177.006 76.3992 181.819 71.8441 181.819 65.6604C181.817 59.4388 177.003 54.9215 171.097 54.9215ZM171.097 72.1723C167.86 72.1723 165.07 69.4883 165.07 65.6629C165.07 61.7971 167.863 59.1534 171.097 59.1534C174.334 59.1534 177.124 61.7971 177.124 65.6629C177.124 69.4858 174.334 72.1723 171.097 72.1723ZM147.709 54.9215C141.802 54.9215 136.989 59.4388 136.989 65.6604C136.989 71.8441 141.802 76.3992 147.709 76.3992C153.617 76.3992 158.431 71.8441 158.431 65.6604C158.431 59.4388 153.617 54.9215 147.709 54.9215ZM147.709 72.1723C144.472 72.1723 141.682 69.4883 141.682 65.6629C141.682 61.7971 144.474 59.1534 147.709 59.1534C150.945 59.1534 153.735 61.7971 153.735 65.6629C153.738 69.4858 150.945 72.1723 147.709 72.1723ZM119.89 58.2192V62.7743H130.733C130.41 65.3372 129.561 67.2082 128.265 68.5086C126.688 70.0943 124.22 71.8441 119.89 71.8441C113.216 71.8441 107.998 66.433 107.998 59.7216C107.998 53.0101 113.216 47.599 119.89 47.599C123.491 47.599 126.121 49.0231 128.062 50.8538L131.258 47.6394C128.546 45.0362 124.948 43.0439 119.89 43.0439C110.748 43.0439 103.061 50.528 103.061 59.7216C103.061 68.9151 110.748 76.3992 119.89 76.3992C124.825 76.3992 128.549 74.7706 131.459 71.7204C134.452 68.7106 135.384 64.4787 135.384 61.0623C135.384 60.0069 135.304 59.0297 135.14 58.2167H119.89V58.2192ZM233.664 61.7567C232.775 59.358 230.063 54.9215 224.521 54.9215C219.019 54.9215 214.446 59.2747 214.446 65.6604C214.446 71.68 218.979 76.3992 225.046 76.3992C229.94 76.3992 232.772 73.3894 233.948 71.6396L230.307 69.1979C229.094 70.9881 227.434 72.1673 225.046 72.1673C222.66 72.1673 220.96 71.0689 219.868 68.9126L234.149 62.9738L233.664 61.7567ZM219.099 65.3372C218.979 61.1861 222.296 59.0726 224.684 59.0726C226.545 59.0726 228.122 60.0094 228.649 61.3502L219.099 65.3372ZM207.491 75.7503H212.181V44.1852H207.491V75.7503ZM199.802 57.3228H199.641C198.589 56.0603 196.565 54.9215 194.018 54.9215C188.677 54.9215 183.783 59.6408 183.783 65.7033C183.783 71.7229 188.677 76.4017 194.018 76.4017C196.567 76.4017 198.589 75.2629 199.641 73.9626H199.802V75.5079C199.802 79.616 197.617 81.8128 194.099 81.8128C191.226 81.8128 189.446 79.7398 188.718 77.9899L184.632 79.6994C185.805 82.545 188.918 86.0447 194.099 86.0447C199.601 86.0447 204.254 82.79 204.254 74.8564V55.5755H199.804V57.3228H199.802ZM194.423 72.1723C191.186 72.1723 188.476 69.4453 188.476 65.7033C188.476 61.9183 191.186 59.1534 194.423 59.1534C197.617 59.1534 200.125 61.9183 200.125 65.7033C200.125 69.4453 197.617 72.1723 194.423 72.1723ZM255.646 44.1852H244.419V75.7503H249.102V63.7919H255.644C260.837 63.7919 265.944 60.0119 265.944 53.9898C265.944 47.9677 260.839 44.1852 255.646 44.1852ZM255.767 59.3984H249.102V48.5787H255.767C259.27 48.5787 261.258 51.4951 261.258 53.9898C261.258 56.434 259.27 59.3984 255.767 59.3984ZM284.725 54.866C281.332 54.866 277.819 56.3684 276.365 59.6989L280.524 61.4436C281.413 59.6988 283.07 59.1282 284.805 59.1282C287.228 59.1282 289.692 60.5902 289.732 63.1884V63.5141C288.883 63.0268 287.065 62.2971 284.845 62.2971C280.363 62.2971 275.798 64.7741 275.798 69.4024C275.798 73.6267 279.474 76.3462 283.592 76.3462C286.741 76.3462 288.479 74.9246 289.569 73.2581H289.729V75.6947H294.254V63.5924C294.257 57.992 290.094 54.866 284.725 54.866ZM284.157 72.1648C282.626 72.1648 280.484 71.3921 280.484 69.4832C280.484 67.0466 283.15 66.1123 285.453 66.1123C287.51 66.1123 288.481 66.5593 289.732 67.1678C289.368 70.0943 286.864 72.1648 284.157 72.1648ZM310.732 55.5553L305.361 69.2408H305.2L299.626 55.5553H294.578L302.938 74.6822L298.172 85.3225H303.058L315.943 55.5553H310.732ZM268.531 75.7503H273.214V44.1852H268.531V75.7503Z" fill="white"/>
<path d="M119.072 25.8633C119.072 27.9793 118.449 29.6634 117.201 30.9209C115.785 32.4157 113.937 33.1631 111.667 33.1631C109.492 33.1631 107.641 32.4056 106.122 30.8906C104.6 29.3731 103.84 27.4945 103.84 25.2523C103.84 23.0075 104.6 21.1289 106.122 19.6139C107.641 18.0964 109.492 17.3389 111.667 17.3389C112.747 17.3389 113.779 17.551 114.758 17.9727C115.74 18.3969 116.526 18.96 117.113 19.6644L115.79 20.9976C114.793 19.7983 113.419 19.1998 111.664 19.1998C110.077 19.1998 108.706 19.7604 107.549 20.8815C106.391 22.0026 105.813 23.4595 105.813 25.2497C105.813 27.04 106.391 28.4969 107.549 29.618C108.706 30.7391 110.077 31.2996 111.664 31.2996C113.347 31.2996 114.75 30.7366 115.873 29.6079C116.601 28.8731 117.023 27.8505 117.136 26.54H111.664V24.7195H118.964C119.039 25.1159 119.072 25.4972 119.072 25.8633Z" fill="white"/>
<path d="M130.648 19.5358H123.788V24.3384H129.975V26.1589H123.788V30.9614H130.648V32.8249H121.852V17.6749H130.648V19.5358Z" fill="white"/>
<path d="M138.812 32.8249H136.876V19.5358H132.667V17.6749H143.02V19.5358H138.812V32.8249Z" fill="white"/>
<path d="M150.511 32.8249V17.6749H152.447V32.8249H150.511Z" fill="white"/>
<path d="M161.033 32.8249H159.097V19.5358H154.888V17.6749H165.242V19.5358H161.033V32.8249Z" fill="white"/>
<path d="M184.84 30.868C183.359 32.3981 181.518 33.1632 179.316 33.1632C177.114 33.1632 175.273 32.3981 173.794 30.868C172.312 29.3378 171.574 27.4643 171.574 25.2499C171.574 23.0354 172.312 21.1619 173.794 19.6317C175.273 18.1016 177.114 17.334 179.316 17.334C181.505 17.334 183.344 18.1041 184.83 19.6418C186.317 21.1796 187.06 23.0481 187.06 25.2499C187.06 27.4643 186.319 29.3378 184.84 30.868ZM175.223 29.5979C176.338 30.7342 177.701 31.2998 179.316 31.2998C180.93 31.2998 182.296 30.7316 183.409 29.5979C184.524 28.4617 185.084 27.0123 185.084 25.2499C185.084 23.4874 184.524 22.0381 183.409 20.9018C182.296 19.7656 180.93 19.2 179.316 19.2C177.701 19.2 176.338 19.7681 175.223 20.9018C174.11 22.0381 173.55 23.4874 173.55 25.2499C173.55 27.0123 174.11 28.4617 175.223 29.5979Z" fill="white"/>
<path d="M189.777 32.8249V17.6749H192.133L199.455 29.4591H199.538L199.455 26.5402V17.6749H201.391V32.8249H199.37L191.708 20.4675H191.625L191.708 23.3864V32.8249H189.777Z" fill="white"/>
<path d="M119.072 25.8633C119.072 27.9793 118.449 29.6634 117.201 30.9209C115.785 32.4157 113.937 33.1631 111.667 33.1631C109.492 33.1631 107.641 32.4056 106.122 30.8906C104.6 29.3731 103.84 27.4945 103.84 25.2523C103.84 23.0075 104.6 21.1289 106.122 19.6139C107.641 18.0964 109.492 17.3389 111.667 17.3389C112.747 17.3389 113.779 17.551 114.758 17.9727C115.74 18.3969 116.526 18.96 117.113 19.6644L115.79 20.9976C114.793 19.7983 113.419 19.1998 111.664 19.1998C110.077 19.1998 108.706 19.7604 107.549 20.8815C106.391 22.0026 105.813 23.4595 105.813 25.2497C105.813 27.04 106.391 28.4969 107.549 29.618C108.706 30.7391 110.077 31.2996 111.664 31.2996C113.347 31.2996 114.75 30.7366 115.873 29.6079C116.601 28.8731 117.023 27.8505 117.136 26.54H111.664V24.7195H118.964C119.039 25.1159 119.072 25.4972 119.072 25.8633Z" stroke="white" stroke-width="0.2" stroke-miterlimit="10"/>
<path d="M130.648 19.5358H123.788V24.3384H129.975V26.1589H123.788V30.9614H130.648V32.8249H121.852V17.6749H130.648V19.5358Z" stroke="white" stroke-width="0.2" stroke-miterlimit="10"/>
<path d="M138.812 32.8249H136.876V19.5358H132.667V17.6749H143.02V19.5358H138.812V32.8249Z" stroke="white" stroke-width="0.2" stroke-miterlimit="10"/>
<path d="M150.511 32.8249V17.6749H152.447V32.8249H150.511Z" stroke="white" stroke-width="0.2" stroke-miterlimit="10"/>
<path d="M161.033 32.8249H159.097V19.5358H154.888V17.6749H165.242V19.5358H161.033V32.8249Z" stroke="white" stroke-width="0.2" stroke-miterlimit="10"/>
<path d="M184.84 30.868C183.359 32.3981 181.518 33.1632 179.316 33.1632C177.114 33.1632 175.273 32.3981 173.794 30.868C172.312 29.3378 171.574 27.4643 171.574 25.2499C171.574 23.0354 172.312 21.1619 173.794 19.6317C175.273 18.1016 177.114 17.334 179.316 17.334C181.505 17.334 183.344 18.1041 184.83 19.6418C186.317 21.1796 187.06 23.0481 187.06 25.2499C187.06 27.4643 186.319 29.3378 184.84 30.868ZM175.223 29.5979C176.338 30.7342 177.701 31.2998 179.316 31.2998C180.93 31.2998 182.296 30.7316 183.409 29.5979C184.524 28.4617 185.084 27.0123 185.084 25.2499C185.084 23.4874 184.524 22.0381 183.409 20.9018C182.296 19.7656 180.93 19.2 179.316 19.2C177.701 19.2 176.338 19.7681 175.223 20.9018C174.11 22.0381 173.55 23.4874 173.55 25.2499C173.55 27.0123 174.11 28.4617 175.223 29.5979Z" stroke="white" stroke-width="0.2" stroke-miterlimit="10"/>
<path d="M189.777 32.8249V17.6749H192.133L199.455 29.4591H199.538L199.455 26.5402V17.6749H201.391V32.8249H199.37L191.708 20.4675H191.625L191.708 23.3864V32.8249H189.777Z" stroke="white" stroke-width="0.2" stroke-miterlimit="10"/>
<g filter="url(#filter0_ii_16_791)">
<path d="M26.206 19.0334C25.4752 19.8111 25.0433 21.0181 25.0433 22.5811V78.424C25.0433 79.9895 25.4752 81.1939 26.206 81.9716L26.3918 82.1534L57.5019 50.8712V50.5025V50.1339L26.3918 18.8491L26.206 19.0334Z" fill="url(#paint0_linear_16_791)"/>
<path d="M67.8703 61.3019L57.5019 50.8711V50.5025V50.1338L67.8728 39.7056L68.1063 39.8394L80.3932 46.8589C83.9012 48.8637 83.9012 52.1437 80.3932 54.1511L68.1063 61.1706L67.8703 61.3019Z" fill="url(#paint1_linear_16_791)"/>
<g filter="url(#filter1_i_16_791)">
<path d="M68.1064 61.168L57.4994 50.5024L26.206 81.9715C27.3611 83.2037 29.272 83.3552 31.4241 82.1281L68.1064 61.168Z" fill="url(#paint2_linear_16_791)"/>
</g>
<path d="M68.1064 39.8369L31.4241 18.8794C29.272 17.6497 27.3611 17.8037 26.206 19.0359L57.5019 50.505L68.1064 39.8369Z" fill="url(#paint3_linear_16_791)"/>
</g>
<path d="M50 1H289V-1H50V1ZM289 100H50V102H289V100ZM50 100C22.9509 100 1 77.5749 1 50.5H-1C-1 78.6535 21.8206 102 50 102V100ZM338 50.5C338 77.5749 316.049 100 289 100V102C317.179 102 340 78.6535 340 50.5H338ZM289 1C316.049 1 338 23.4251 338 50.5H340C340 22.3465 317.179 -1 289 -1V1ZM50 -1C21.8206 -1 -1 22.3465 -1 50.5H1C1 23.4251 22.9509 1 50 1V-1Z" fill="#A6A6A6"/>
<defs>
<filter id="filter0_ii_16_791" x="25.0433" y="18.0308" width="57.9809" height="64.9448" filterUnits="userSpaceOnUse" color-interpolation-filters="sRGB">
<feFlood flood-opacity="0" result="BackgroundImageFix"/>
<feBlend mode="normal" in="SourceGraphic" in2="BackgroundImageFix" result="shape"/>
<feColorMatrix in="SourceAlpha" type="matrix" values="0 0 0 0 0 0 0 0 0 0 0 0 0 0 0 0 0 0 127 0" result="hardAlpha"/>
<feOffset dy="-0.15"/>
<feComposite in2="hardAlpha" operator="arithmetic" k2="-1" k3="1"/>
<feColorMatrix type="matrix" values="0 0 0 0 0 0 0 0 0 0 0 0 0 0 0 0 0 0 0.12 0"/>
<feBlend mode="normal" in2="shape" result="effect1_innerShadow_16_791"/>
<feColorMatrix in="SourceAlpha" type="matrix" values="0 0 0 0 0 0 0 0 0 0 0 0 0 0 0 0 0 0 127 0" result="hardAlpha"/>
<feOffset dy="0.15"/>
<feComposite in2="hardAlpha" operator="arithmetic" k2="-1" k3="1"/>
<feColorMatrix type="matrix" values="0 0 0 0 1 0 0 0 0 1 0 0 0 0 1 0 0 0 0.25 0"/>
<feBlend mode="normal" in2="effect1_innerShadow_16_791" result="effect2_innerShadow_16_791"/>
</filter>
<filter id="filter1_i_16_791" x="26.206" y="50.5024" width="41.9004" height="32.4731" filterUnits="userSpaceOnUse" color-interpolation-filters="sRGB">
<feFlood flood-opacity="0" result="BackgroundImageFix"/>
<feBlend mode="normal" in="SourceGraphic" in2="BackgroundImageFix" result="shape"/>
<feColorMatrix in="SourceAlpha" type="matrix" values="0 0 0 0 0 0 0 0 0 0 0 0 0 0 0 0 0 0 127 0" result="hardAlpha"/>
<feOffset dy="-0.15"/>
<feComposite in2="hardAlpha" operator="arithmetic" k2="-1" k3="1"/>
<feColorMatrix type="matrix" values="0 0 0 0 0 0 0 0 0 0 0 0 0 0 0 0 0 0 0.08 0"/>
<feBlend mode="normal" in2="shape" result="effect1_innerShadow_16_791"/>
</filter>
<linearGradient id="paint0_linear_16_791" x1="54.7442" y1="21.9902" x2="12.3703" y2="64.131" gradientUnits="userSpaceOnUse">
<stop stop-color="#00A0FF"/>
<stop offset="0.0066" stop-color="#00A1FF"/>
<stop offset="0.2601" stop-color="#00BEFF"/>
<stop offset="0.5122" stop-color="#00D2FF"/>
<stop offset="0.7604" stop-color="#00DFFF"/>
<stop offset="1" stop-color="#00E3FF"/>
</linearGradient>
<linearGradient id="paint1_linear_16_791" x1="84.9597" y1="50.5025" x2="24.2011" y2="50.5025" gradientUnits="userSpaceOnUse">
<stop stop-color="#FFE000"/>
<stop offset="0.4087" stop-color="#FFBD00"/>
<stop offset="0.7754" stop-color="#FFA500"/>
<stop offset="1" stop-color="#FF9C00"/>
</linearGradient>
<linearGradient id="paint2_linear_16_791" x1="62.3461" y1="56.2945" x2="4.8818" y2="113.443" gradientUnits="userSpaceOnUse">
<stop stop-color="#FF3A44"/>
<stop offset="1" stop-color="#C31162"/>
</linearGradient>
<linearGradient id="paint3_linear_16_791" x1="18.3246" y1="0.446349" x2="43.984" y2="25.9646" gradientUnits="userSpaceOnUse">
<stop stop-color="#32A071"/>
<stop offset="0.0685" stop-color="#2DA771"/>
<stop offset="0.4762" stop-color="#15CF74"/>
<stop offset="0.8009" stop-color="#06E775"/>
<stop offset="1" stop-color="#00F076"/>
</linearGradient>
</defs>
</svg>
