<svg width="99" height="99" viewBox="0 0 99 99" fill="none" xmlns="http://www.w3.org/2000/svg">
<path d="M76 52.5938C76.8205 52.5938 77.6074 52.2678 78.1876 51.6876C78.7678 51.1075 79.0938 50.3205 79.0938 49.5C79.0938 48.6795 78.7678 47.8926 78.1876 47.3124C77.6074 46.7322 76.8205 46.4063 76 46.4063L29.4061 46.4063L54.3479 23.958C54.6574 23.6887 54.9102 23.3604 55.0917 22.9924C55.2731 22.6244 55.3796 22.224 55.4048 21.8145C55.43 21.4049 55.3735 20.9945 55.2386 20.607C55.1037 20.2195 54.8931 19.8627 54.6189 19.5574C54.3448 19.2521 54.0127 19.0043 53.6419 18.8286C53.2712 18.6529 52.8691 18.5527 52.4593 18.5338C52.0494 18.5149 51.6398 18.5778 51.2545 18.7187C50.8691 18.8596 50.5156 19.0757 50.2146 19.3545L19.2771 47.1983C18.9541 47.4884 18.6957 47.8433 18.5188 48.2399C18.342 48.6365 18.2506 49.0658 18.2506 49.5C18.2506 49.9343 18.342 50.3636 18.5188 50.7602C18.6957 51.1567 18.9541 51.5116 19.2771 51.8018L50.2146 79.6455C50.8273 80.1787 51.6251 80.4496 52.4358 80.3997C53.2465 80.3497 54.005 79.983 54.5476 79.3786C55.0902 78.7743 55.3734 77.9808 55.3361 77.1694C55.2987 76.3581 54.9438 75.594 54.3479 75.042L29.4061 52.5938L44.4061 52.5938H59.4062H76Z" fill="black" fill-opacity="0.4"/>
</svg>
