<svg width="267" height="65" viewBox="0 0 267 65" fill="none" xmlns="http://www.w3.org/2000/svg">
<path fill-rule="evenodd" clip-rule="evenodd" d="M6.11939 32.5C6.11939 47.0696 17.9304 58.8806 32.5 58.8806C47.0696 58.8806 58.8806 47.0696 58.8806 32.5C58.8806 17.9304 47.0696 6.11939 32.5 6.11939C17.9304 6.11939 6.11939 17.9304 6.11939 32.5ZM0 32.5C0 14.5509 14.5509 0 32.5 0C50.4491 0 65 14.5509 65 32.5C65 50.4491 50.4491 65 32.5 65C14.5509 65 0 50.4491 0 32.5Z" fill="#137E9C"/>
<path d="M80.872 47V19.7H91.987C93.261 20.168 94.392 20.987 95.38 22.157C96.368 23.327 96.862 24.744 96.862 26.408C96.862 29.346 95.9 31.4 93.976 32.57V32.726C96.368 34.052 97.564 36.132 97.564 38.966C97.564 42.216 95.913 44.894 92.611 47H80.872ZM86.176 30.971H90.037C91.181 30.269 91.753 29.203 91.753 27.773C91.753 26.343 91.22 25.212 90.154 24.38H86.176V30.971ZM86.176 42.476H90.193C90.661 42.138 91.077 41.605 91.441 40.877C91.831 40.149 92.026 39.421 92.026 38.693C92.026 37.965 91.87 37.302 91.558 36.704C91.246 36.106 90.856 35.664 90.388 35.378H86.176V42.476ZM100.254 47V27.071H103.959L104.934 29.177C105.974 27.773 107.287 27.071 108.873 27.071H110.394V32.297H105.441V47H100.254ZM127 27.071V44.933C127 46.909 126.74 48.495 126.22 49.691C125.726 50.887 124.725 51.94 123.217 52.85H114.325V48.794H120.994C121.644 48.404 121.969 47.78 121.969 46.922V44.621C121.007 45.427 119.473 45.83 117.367 45.83H114.52C112.414 43.308 111.361 40.383 111.361 37.055C111.361 34.663 111.699 32.713 112.375 31.205C113.051 29.671 114.039 28.293 115.339 27.071H118.225C119.915 27.071 121.254 27.617 122.242 28.709L122.944 27.071H127ZM121.813 31.166H118.03C117.094 32.778 116.626 34.637 116.626 36.743C116.626 38.823 117.029 40.539 117.835 41.891H121.813V31.166ZM130.228 47V27.071H133.933L134.908 29.177C135.948 27.773 137.261 27.071 138.847 27.071H140.368V32.297H135.415V47H130.228Z" fill="#137E9C"/>
<path d="M35.75 37.375L40.9045 32.2205C41.7667 31.359 42.9357 30.8751 44.1545 30.875H45.5C46.362 30.875 47.1886 31.2174 47.7981 31.8269C48.4076 32.4364 48.75 33.263 48.75 34.125C48.75 34.987 48.4076 35.8136 47.7981 36.4231C47.1886 37.0326 46.362 37.375 45.5 37.375H19.5C18.638 37.375 17.8114 37.0326 17.2019 36.4231C16.5924 35.8136 16.25 34.987 16.25 34.125C16.25 33.263 16.5924 32.4364 17.2019 31.8269C17.8114 31.2174 18.638 30.875 19.5 30.875H25.4426C27.8801 30.875 30.2185 31.8435 31.9426 33.5676L35.75 37.375Z" stroke="#137E9C" stroke-width="2" stroke-linecap="round" stroke-linejoin="round"/>
<path d="M17.875 37.375H47.125V40.625C47.125 41.9179 46.6114 43.1579 45.6971 44.0721C44.7829 44.9864 43.5429 45.5 42.25 45.5H22.75C21.4571 45.5 20.2171 44.9864 19.3029 44.0721C18.3886 43.1579 17.875 41.9179 17.875 40.625V37.375Z" fill="#137E9C" stroke="#137E9C" stroke-width="2" stroke-linecap="round" stroke-linejoin="round"/>
<path fill-rule="evenodd" clip-rule="evenodd" d="M21.8839 20.4002C24.8137 18.6176 28.5675 17.875 32.5 17.875C36.4325 17.875 40.1862 18.6176 43.1161 20.4002C46.1126 22.2219 48.1682 25.09 48.6444 29.0582C48.8832 31.0472 47.2339 32.5 45.5 32.5H19.5C17.7661 32.5 16.1167 31.0472 16.3556 29.0582C16.8317 25.09 18.8874 22.2219 21.8839 20.4002V20.4002ZM24.375 22.75C23.944 22.75 23.5307 22.9212 23.2259 23.226C22.9212 23.5307 22.75 23.944 22.75 24.375C22.75 24.806 22.9212 25.2193 23.2259 25.524C23.5307 25.8288 23.944 26 24.375 26H24.3766C24.8076 26 25.2209 25.8288 25.5257 25.524C25.8304 25.2193 26.0016 24.806 26.0016 24.375C26.0016 23.944 25.8304 23.5307 25.5257 23.226C25.2209 22.9212 24.8076 22.75 24.3766 22.75H24.375ZM37.375 24.375C37.375 23.944 37.5462 23.5307 37.8509 23.226C38.1557 22.9212 38.569 22.75 39 22.75H39.0016C39.4326 22.75 39.8459 22.9212 40.1507 23.226C40.4554 23.5307 40.6266 23.944 40.6266 24.375C40.6266 24.806 40.4554 25.2193 40.1507 25.524C39.8459 25.8288 39.4326 26 39.0016 26H39C38.569 26 38.1557 25.8288 37.8509 25.524C37.5462 25.2193 37.375 24.806 37.375 24.375ZM30.875 26C30.444 26 30.0307 26.1712 29.7259 26.476C29.4212 26.7807 29.25 27.194 29.25 27.625C29.25 28.056 29.4212 28.4693 29.7259 28.774C30.0307 29.0788 30.444 29.25 30.875 29.25H30.8766C31.3076 29.25 31.7209 29.0788 32.0257 28.774C32.3304 28.4693 32.5016 28.056 32.5016 27.625C32.5016 27.194 32.3304 26.7807 32.0257 26.476C31.7209 26.1712 31.3076 26 30.8766 26H30.875Z" fill="#137E9C"/>
</svg>
