<svg width="92" height="96" viewBox="0 0 92 96" fill="none" xmlns="http://www.w3.org/2000/svg">
<path fill-rule="evenodd" clip-rule="evenodd" d="M46.1067 0C34.0613 0 23.0853 3.97867 16.592 7.22933C16.0053 7.52267 15.4587 7.81067 14.9493 8.088C13.9413 8.63733 13.0827 9.14933 12.4 9.6L19.7867 20.4747L23.264 21.8587C36.8533 28.7147 55.0773 28.7147 68.6693 21.8587L72.616 19.8107L79.6027 9.6C78.1553 8.65598 76.6501 7.80364 75.096 7.048C68.6373 3.832 57.9253 0 46.1067 0ZM28.9253 12.3093C26.3097 11.8199 23.7262 11.1716 21.1893 10.368C27.272 7.66667 36.3387 4.8 46.104 4.8C52.8693 4.8 59.2667 6.176 64.5573 7.92C58.3573 8.792 51.7413 10.272 45.4373 12.0933C40.4773 13.528 34.68 13.3733 28.9253 12.3093ZM71.4853 25.8133L70.832 26.144C55.88 33.6853 36.0507 33.6853 21.0987 26.144L20.48 25.8293C-1.97867 50.472 -19.1253 95.992 46.1067 95.992C111.333 95.992 93.768 49.6213 71.4853 25.8133ZM43.3333 48C41.9188 48 40.5623 48.5619 39.5621 49.5621C38.5619 50.5623 38 51.9188 38 53.3333C38 54.7478 38.5619 56.1044 39.5621 57.1046C40.5623 58.1048 41.9188 58.6667 43.3333 58.6667V48ZM48.6667 42.6667V40H43.3333V42.6667C40.5044 42.6667 37.7913 43.7905 35.7909 45.7909C33.7905 47.7913 32.6667 50.5044 32.6667 53.3333C32.6667 56.1623 33.7905 58.8754 35.7909 60.8758C37.7913 62.8762 40.5044 64 43.3333 64V74.6667C42.2304 74.6669 41.1544 74.3252 40.2537 73.6886C39.353 73.052 38.6718 72.1518 38.304 71.112C38.0685 70.4451 37.5777 69.899 36.9396 69.594C36.3014 69.2889 35.5683 69.2498 34.9013 69.4853C34.2344 69.7208 33.6883 70.2116 33.3833 70.8498C33.0782 71.4879 33.0392 72.2211 33.2747 72.888C34.0102 74.9679 35.3725 76.7687 37.1739 78.0424C38.9753 79.316 41.1272 80 43.3333 80V82.6667H48.6667V80C51.4956 80 54.2088 78.8762 56.2091 76.8758C58.2095 74.8754 59.3333 72.1623 59.3333 69.3333C59.3333 66.5044 58.2095 63.7913 56.2091 61.7909C54.2088 59.7905 51.4956 58.6667 48.6667 58.6667V48C50.9867 48 52.9627 49.48 53.6987 51.5547C53.8079 51.8941 53.984 52.2082 54.2167 52.4783C54.4494 52.7485 54.7339 52.9692 55.0534 53.1275C55.3729 53.2858 55.7209 53.3784 56.0769 53.3998C56.4328 53.4213 56.7894 53.3711 57.1256 53.2523C57.4618 53.1336 57.7707 52.9486 58.0342 52.7083C58.2976 52.468 58.5102 52.1774 58.6593 51.8535C58.8085 51.5296 58.8912 51.1791 58.9025 50.8228C58.9139 50.4664 58.8536 50.1114 58.7253 49.7787C57.9898 47.6987 56.6275 45.898 54.8261 44.6243C53.0248 43.3506 50.8728 42.6667 48.6667 42.6667ZM48.6667 64V74.6667C50.0812 74.6667 51.4377 74.1048 52.4379 73.1046C53.4381 72.1044 54 70.7478 54 69.3333C54 67.9188 53.4381 66.5623 52.4379 65.5621C51.4377 64.5619 50.0812 64 48.6667 64Z" fill="#137E9C"/>
</svg>
