<svg width="99" height="99" viewBox="0 0 99 99" fill="none" xmlns="http://www.w3.org/2000/svg">
<path d="M23 46.4062C22.1795 46.4062 21.3926 46.7322 20.8124 47.3124C20.2322 47.8925 19.9062 48.6795 19.9062 49.5C19.9062 50.3205 20.2322 51.1074 20.8124 51.6876C21.3926 52.2678 22.1795 52.5937 23 52.5937H69.5939L44.6521 75.042C44.3426 75.3113 44.0898 75.6396 43.9083 76.0076C43.7269 76.3756 43.6204 76.776 43.5952 77.1855C43.57 77.5951 43.6265 78.0055 43.7614 78.393C43.8963 78.7805 44.1069 79.1373 44.3811 79.4426C44.6552 79.7479 44.9873 79.9957 45.3581 80.1714C45.7288 80.3471 46.1309 80.4473 46.5407 80.4662C46.9506 80.4851 47.3602 80.4222 47.7455 80.2813C48.1309 80.1404 48.4844 79.9243 48.7854 79.6455L79.7229 51.8017C80.0459 51.5116 80.3043 51.1567 80.4812 50.7601C80.658 50.3635 80.7494 49.9342 80.7494 49.5C80.7494 49.0657 80.658 48.6364 80.4812 48.2398C80.3043 47.8433 80.0459 47.4884 79.7229 47.1982L48.7854 19.3545C48.1727 18.8213 47.3749 18.5504 46.5642 18.6003C45.7535 18.6503 44.995 19.017 44.4524 19.6214C43.9098 20.2257 43.6266 21.0192 43.6639 21.8306C43.7013 22.6419 44.0562 23.406 44.6521 23.958L69.5939 46.4062H54.5939H39.5938H23Z" fill="black"/>
</svg>
