<svg width="100" height="100" viewBox="0 0 100 100" fill="none" xmlns="http://www.w3.org/2000/svg">
<path d="M49.9583 8.33337C26.9583 8.33337 8.33331 27 8.33331 50C8.33331 73 26.9583 91.6667 49.9583 91.6667C73 91.6667 91.6667 73 91.6667 50C91.6667 27 73 8.33337 49.9583 8.33337ZM50 83.3334C31.5833 83.3334 16.6666 68.4167 16.6666 50C16.6666 31.5834 31.5833 16.6667 50 16.6667C68.4167 16.6667 83.3333 31.5834 83.3333 50C83.3333 68.4167 68.4167 83.3334 50 83.3334Z" fill="#137E9C"/>
<path d="M52.0833 29.1666H45.8333V54.1666L67.7083 67.2916L70.8333 62.1666L52.0833 51.0416V29.1666Z" fill="#137E9C"/>
</svg>
